<?xml version="1.0" standalone="no"?>
<!DOCTYPE svg PUBLIC "-//W3C//DTD SVG 20010904//EN"
 "http://www.w3.org/TR/2001/REC-SVG-20010904/DTD/svg10.dtd">
<svg version="1.0" xmlns="http://www.w3.org/2000/svg"
 width="1280.000000pt" height="791.000000pt" viewBox="0 0 1280.000000 791.000000"
 preserveAspectRatio="xMidYMid meet">
<g transform="translate(0.000000,791.000000) scale(0.100000,-0.100000)"
fill="#000000" stroke="none">
<path d="M6858 7867 c-82 -28 -165 -84 -218 -146 -78 -90 -93 -138 -175 -536
-42 -204 -126 -611 -186 -905 -61 -294 -159 -775 -220 -1067 -499 -2432 -535
-2606 -694 -3378 -80 -390 -170 -827 -199 -970 -69 -330 -71 -352 -52 -445 34
-159 127 -280 272 -352 75 -37 92 -41 177 -46 109 -5 175 7 261 50 104 52 199
159 239 268 10 25 62 266 118 535 96 470 136 667 464 2260 80 391 195 949 255
1240 191 931 396 1925 504 2453 58 282 106 538 106 567 0 218 -142 411 -348
475 -91 28 -216 27 -304 -3z"/>
<path d="M3045 7090 c-63 -13 -125 -38 -175 -70 -25 -16 -660 -645 -1412
-1397 -1476 -1478 -1396 -1392 -1438 -1547 -25 -94 -25 -118 0 -209 44 -159
-41 -67 1419 -1531 740 -741 1372 -1368 1404 -1391 278 -209 674 -70 772 269
13 45 16 84 13 156 -4 82 -10 108 -38 171 -33 73 -43 83 -1202 1244 -642 644
-1168 1177 -1168 1185 0 8 516 530 1146 1160 741 741 1160 1166 1185 1204 99
151 106 359 17 514 -103 180 -324 282 -523 242z"/>
<path d="M9546 7085 c-128 -33 -250 -124 -314 -237 -89 -155 -82 -363 17 -514
25 -38 444 -463 1185 -1204 630 -630 1146 -1152 1146 -1160 0 -8 -526 -541
-1168 -1185 -1159 -1161 -1169 -1171 -1202 -1244 -28 -63 -34 -89 -38 -171 -7
-157 41 -282 149 -385 175 -167 444 -184 636 -40 32 23 664 650 1404 1391
1460 1464 1375 1372 1419 1531 25 91 25 115 0 209 -42 155 38 69 -1438 1547
-752 752 -1388 1381 -1413 1397 -104 68 -265 95 -383 65z"/>
</g>
</svg>
